<?xml version="1.0" encoding="UTF-8" standalone="no"?>
<!-- Created with Inkscape (http://www.inkscape.org/) -->

<svg
   width="131.22096mm"
   height="15.274178mm"
   viewBox="0 0 131.22096 15.274178"
   version="1.1"
   id="svg1"
   xml:space="preserve"
   inkscape:version="1.4.2 (ebf0e940d0, 2025-05-08)"
   sodipodi:docname="supported_by_pal.svg"
   xmlns:inkscape="http://www.inkscape.org/namespaces/inkscape"
   xmlns:sodipodi="http://sodipodi.sourceforge.net/DTD/sodipodi-0.dtd"
   xmlns="http://www.w3.org/2000/svg"
   xmlns:svg="http://www.w3.org/2000/svg"><sodipodi:namedview
     id="namedview1"
     pagecolor="#ffffff"
     bordercolor="#000000"
     borderopacity="0.25"
     inkscape:showpageshadow="2"
     inkscape:pageopacity="0.0"
     inkscape:pagecheckerboard="0"
     inkscape:deskcolor="#d1d1d1"
     inkscape:document-units="mm"
     inkscape:zoom="5.8439955"
     inkscape:cx="63.740638"
     inkscape:cy="46.885731"
     inkscape:window-width="1920"
     inkscape:window-height="1043"
     inkscape:window-x="1920"
     inkscape:window-y="0"
     inkscape:window-maximized="1"
     inkscape:current-layer="g1" /><defs
     id="defs1" /><g
     inkscape:label="Layer 1"
     inkscape:groupmode="layer"
     id="layer1"
     transform="translate(-23.37864,-18.416252)"><g
       id="g1"
       transform="matrix(0.56100168,0,0,0.56100168,61.467586,-22.800491)"
       style="stroke-width:1.78253"><g
         id="g10"
         transform="matrix(0.00945697,0,0,-0.00945697,47.008438,124.94713)"
         style="fill:#343433;fill-opacity:1;stroke-width:6.64945"><path
           d="M 3844.74,5443.3 H 1768.42 c -77.33,0 -116.09,-41.14 -116.09,-123.43 v -444.12 h 641.95 456.13 974.47 c 131.61,0 224.27,-30.16 278.47,-90.56 53.98,-60.31 81.13,-152.11 81.13,-275.54 v -156.19 c 0,-123.43 -27.15,-215.3 -81.13,-275.64 -54.2,-60.31 -146.86,-90.46 -278.47,-90.46 H 2243.86 1652.33 V 2654.81 c 0,-60.31 29.72,-90.46 88.94,-90.46 h 417.69 c 56.59,0 84.9,30.15 84.9,90.46 v 789.68 h 1600.88 c 296.43,0 508.99,71.2 637.99,213.79 128.92,142.63 193.34,353.74 193.34,633.46 v 304.29 c 0,279.72 -64.42,490.85 -193.34,633.38 -129,142.59 -341.56,213.89 -637.99,213.89"
           style="fill:#343433;fill-opacity:1;fill-rule:nonzero;stroke:none;stroke-width:6.64945"
           id="path12" /><path
           d="m 7607.28,5130.74 c -64.35,123.43 -130.08,206.26 -197.05,248.78 -67.03,42.52 -149.49,63.79 -247.47,63.79 H 6934.7 c -82.51,0 -154.57,-21.27 -216.46,-63.79 -61.93,-42.52 -125.2,-125.35 -189.53,-248.78 L 5260.74,2658.93 c -12.98,-27.44 -16.23,-50.03 -9.58,-67.9 6.41,-17.86 26.39,-26.68 59.84,-26.68 h 502.69 c 41.14,0 70.75,17.79 88.84,53.44 l 66.37,131.85 0.76,1.56 199.61,397.09 h 1.38 l 374.77,740.47 474.2,941.76 c 10.45,19.19 24.59,28.78 42.67,28.78 h 23.06 c 18.11,0 32.33,-9.59 42.67,-28.78 l 504.31,-988.69 560.04,-1092.19 68.22,-131.85 c 15.47,-35.65 45.06,-53.44 88.91,-53.44 h 490.91 c 31.02,0 49.67,8.82 56.07,26.68 6.43,17.87 3.26,40.46 -9.58,67.9 L 7607.28,5130.74"
           style="fill:#343433;fill-opacity:1;fill-rule:nonzero;stroke:none;stroke-width:6.64945"
           id="path14" /><path
           d="m 12498.3,3148.32 h -1565.9 c -100.6,0 -183.8,8.97 -249.4,26.83 -65.7,17.81 -118,47.87 -156.7,90.47 -38.5,42.47 -66.2,100 -83.1,172.7 -16.8,72.6 -25.1,163.78 -25.1,273.54 v 1640.99 c 0,60.26 -28.3,90.42 -85.1,90.42 h -417.44 c -59.49,0 -89.18,-30.16 -89.18,-90.42 v -1702.8 c 0,-197.42 20.03,-365.39 60.09,-503.72 39.81,-138.44 103.08,-250.98 189.33,-337.28 86.5,-86.37 197.9,-148.7 334.5,-187.14 136.6,-38.43 302.9,-57.6 498.9,-57.6 h 1589.1 c 56.6,0 85.2,30.16 85.2,90.47 v 403.05 c 0,60.34 -28.6,90.49 -85.2,90.49"
           style="fill:#343433;fill-opacity:1;fill-rule:nonzero;stroke:none;stroke-width:6.64945"
           id="path16" /></g><path
         style="font-size:12.9217px;font-family:Interstate;-inkscape-font-specification:Interstate;fill:#343433;stroke-width:1.90019;stroke-linejoin:round"
         d="m -67.232651,83.399931 q 0,0.76238 -0.180904,1.395543 -0.167982,0.633163 -0.503946,1.098345 -0.335964,0.452259 -0.826989,0.710693 -0.491024,0.245512 -1.124188,0.245512 -0.452259,0 -0.826989,-0.15506 -0.361807,-0.15506 -0.607319,-0.374729 v 1.989941 l -1.783195,0.891598 v -9.277781 h 1.783195 v 0.426417 q 0.258434,-0.219669 0.594398,-0.387651 0.348886,-0.180904 0.83991,-0.180904 0.542712,0 1.020814,0.206747 0.478103,0.206747 0.839911,0.659007 0.361808,0.439337 0.568555,1.124188 0.206747,0.68485 0.206747,1.628134 z m -1.809038,0.03876 q 0,-1.046658 -0.323042,-1.511839 -0.310121,-0.465181 -0.839911,-0.465181 -0.413494,0 -0.659007,0.15506 -0.245512,0.155061 -0.439337,0.413495 v 2.558496 q 0.426416,0.581476 1.201718,0.581476 1.059579,0 1.059579,-1.731507 z m 7.184468,-1.434309 q -0.219668,-0.193825 -0.478102,-0.310121 -0.258434,-0.129217 -0.555634,-0.129217 -0.258433,0 -0.478102,0.06461 -0.206748,0.06461 -0.361808,0.23259 -0.142139,0.167983 -0.232591,0.45226 -0.07753,0.284277 -0.07753,0.723615 v 3.669763 h -1.783194 v -6.783893 h 1.783194 v 0.45226 q 0.232591,-0.245512 0.568555,-0.413494 0.348886,-0.180904 0.826989,-0.180904 0.439338,0 0.749458,0.15506 0.323043,0.142139 0.503947,0.323043 z m 7.158623,1.318013 q 0,0.775302 -0.232591,1.434309 -0.23259,0.646085 -0.646085,1.111266 -0.400572,0.465181 -0.969127,0.723615 -0.568555,0.258434 -1.227562,0.258434 -0.659006,0 -1.227561,-0.258434 -0.555633,-0.258434 -0.969128,-0.723615 -0.400572,-0.465181 -0.633163,-1.111266 -0.23259,-0.659007 -0.23259,-1.434309 0,-0.775302 0.23259,-1.421386 0.232591,-0.659007 0.633163,-1.124188 0.413495,-0.478103 0.969128,-0.736537 0.568555,-0.258434 1.227561,-0.258434 0.659007,0 1.227562,0.258434 0.568555,0.258434 0.969127,0.736537 0.413495,0.465181 0.646085,1.124188 0.232591,0.646084 0.232591,1.421386 z m -1.809038,0 q 0,-0.775302 -0.310121,-1.292169 -0.310121,-0.52979 -0.956206,-0.52979 -0.646085,0 -0.956205,0.516868 -0.297199,0.516868 -0.297199,1.305091 0,0.788224 0.297199,1.305092 0.31012,0.503946 0.956205,0.503946 0.323043,0 0.555633,-0.142138 0.245513,-0.155061 0.400573,-0.400573 0.155061,-0.258434 0.232591,-0.581476 0.07753,-0.335965 0.07753,-0.684851 z m 7.223236,3.385486 v -0.45226 q -0.232591,0.245513 -0.646085,0.426416 -0.400573,0.167982 -0.943284,0.167982 -1.305092,0 -1.912412,-0.826988 -0.594398,-0.839911 -0.594398,-2.274219 v -3.824824 h 1.783194 v 3.669763 q 0,0.45226 0.07753,0.76238 0.07753,0.2972 0.219668,0.478103 0.142139,0.180904 0.361808,0.258434 0.219669,0.07753 0.491025,0.07753 0.555633,0 0.852832,-0.323042 0.310121,-0.335964 0.310121,-1.21464 v -3.708528 h 1.783194 v 6.783893 z m 7.236145,0 V 86.28147 q -0.258434,0.219669 -0.60732,0.400572 -0.335964,0.167982 -0.826988,0.167982 -0.542712,0 -1.020815,-0.206747 -0.478102,-0.206747 -0.83991,-0.646085 -0.361808,-0.452259 -0.568555,-1.124188 -0.206747,-0.68485 -0.206747,-1.641055 0,-0.762381 0.167982,-1.395544 0.180904,-0.633163 0.516868,-1.085423 0.335964,-0.465181 0.826989,-0.710693 0.491024,-0.258434 1.124188,-0.258434 0.452259,0 0.814067,0.15506 0.374729,0.155061 0.620241,0.374729 v -2.13208 l 1.783195,-0.891597 v 9.419919 z m 0,-4.664734 q -0.426416,-0.581476 -1.201718,-0.581476 -1.059579,0 -1.059579,1.731507 0,1.046658 0.310121,1.511839 0.323042,0.465181 0.852832,0.465181 0.413494,0 0.659007,-0.15506 0.245512,-0.15506 0.439337,-0.413494 z m 3.605159,4.664734 v -8.528322 l 1.783194,-0.891597 v 9.419919 z m 6.525452,2.390514 h -1.757351 l 0.904519,-2.390514 -2.636027,-6.783893 h 1.964098 l 1.111266,3.26919 q 0.142139,0.387651 0.258434,0.814068 0.116296,0.426416 0.180904,0.671928 0.06461,-0.258434 0.180904,-0.671928 0.116295,-0.413495 0.258434,-0.814068 l 1.111266,-3.26919 h 1.912412 z m 13.787467,-4.367534 q 0,0.581476 -0.219669,0.994971 -0.219669,0.400572 -0.594398,0.659006 -0.37473,0.245513 -0.878676,0.348886 -0.503946,0.116295 -1.072501,0.116295 -0.814067,0 -1.563526,-0.206747 -0.736537,-0.219669 -1.279248,-0.581476 l 0.594398,-1.356779 q 0.542712,0.297199 1.111266,0.465181 0.581477,0.155061 1.240483,0.155061 0.52979,0 0.710694,-0.129217 0.193825,-0.129217 0.193825,-0.387651 0,-0.232591 -0.219668,-0.374729 -0.206748,-0.142139 -0.775302,-0.310121 -0.60732,-0.180904 -1.111267,-0.361808 -0.491024,-0.193825 -0.83991,-0.439338 -0.348886,-0.258434 -0.542711,-0.620241 -0.180904,-0.361808 -0.180904,-0.904519 0,-0.52979 0.193825,-0.904519 0.206747,-0.387651 0.568555,-0.633163 0.361808,-0.245513 0.852832,-0.361808 0.503947,-0.116295 1.098345,-0.116295 0.646085,0 1.305091,0.180904 0.659007,0.180903 1.201718,0.478102 l -0.568554,1.408466 q -0.503947,-0.271356 -1.033736,-0.400573 -0.516868,-0.142139 -0.943284,-0.142139 -0.542712,0 -0.736537,0.116296 -0.180904,0.103373 -0.180904,0.323042 0,0.103374 0.05169,0.193826 0.05169,0.07753 0.193825,0.167982 0.155061,0.07753 0.426416,0.180904 0.284278,0.103373 0.736537,0.245512 0.45226,0.15506 0.865754,0.323042 0.413494,0.167982 0.723615,0.413495 0.310121,0.245512 0.491025,0.60732 0.180904,0.348885 0.180904,0.852832 z m 5.608026,1.97702 v -0.45226 q -0.232591,0.245513 -0.646085,0.426416 -0.400573,0.167982 -0.943284,0.167982 -1.305092,0 -1.912412,-0.826988 -0.594398,-0.839911 -0.594398,-2.274219 v -3.824824 h 1.783194 v 3.669763 q 0,0.45226 0.07753,0.76238 0.07753,0.2972 0.219668,0.478103 0.142139,0.180904 0.361808,0.258434 0.219669,0.07753 0.491025,0.07753 0.555633,0 0.852832,-0.323042 0.310121,-0.335964 0.310121,-1.21464 v -3.708528 h 1.783194 v 6.783893 z m 9.3682277,-3.307955 q 0,0.76238 -0.1809038,1.395543 -0.1679821,0.633163 -0.5039463,1.098345 -0.3359642,0.452259 -0.8269888,0.710693 -0.4910246,0.245512 -1.1241878,0.245512 -0.4522595,0 -0.8269888,-0.15506 -0.3618076,-0.15506 -0.6073199,-0.374729 v 1.989941 l -1.7831945,0.891598 v -9.277781 h 1.7831945 v 0.426417 q 0.258434,-0.219669 0.5943982,-0.387651 0.3488859,-0.180904 0.8399105,-0.180904 0.5427113,0 1.0208142,0.206747 0.4781029,0.206747 0.8399105,0.659007 0.3618076,0.439337 0.5685548,1.124188 0.2067472,0.68485 0.2067472,1.628134 z m -1.809038,0.03876 q 0,-1.046658 -0.3230425,-1.511839 -0.3101207,-0.465181 -0.8399104,-0.465181 -0.4134944,0 -0.6590067,0.15506 -0.2455123,0.155061 -0.4393378,0.413495 v 2.558496 q 0.4264161,0.581476 1.2017181,0.581476 1.0595793,0 1.0595793,-1.731507 z m 9.071039,-0.03876 q 0,0.76238 -0.1809038,1.395543 -0.1679821,0.633163 -0.5039463,1.098345 -0.3359642,0.452259 -0.8269887,0.710693 -0.4910246,0.245512 -1.1241879,0.245512 -0.4522595,0 -0.82698877,-0.15506 -0.36180759,-0.15506 -0.60731988,-0.374729 v 1.989941 l -1.78319455,0.891598 v -9.277781 h 1.78319455 v 0.426417 q 0.25843399,-0.219669 0.59439818,-0.387651 0.34888588,-0.180904 0.83991047,-0.180904 0.5427114,0 1.0208143,0.206747 0.4781028,0.206747 0.8399104,0.659007 0.3618076,0.439337 0.5685548,1.124188 0.2067472,0.68485 0.2067472,1.628134 z m -1.8090379,0.03876 q 0,-1.046658 -0.3230425,-1.511839 -0.3101208,-0.465181 -0.8399105,-0.465181 -0.41349438,0 -0.65900667,0.15506 -0.24551229,0.155061 -0.43933778,0.413495 v 2.558496 q 0.42641608,0.581476 1.20171805,0.581476 1.0595794,0 1.0595794,-1.731507 z M 11.305463,83.3224 q 0,0.775302 -0.232591,1.434309 -0.232591,0.646085 -0.646085,1.111266 -0.400573,0.465181 -0.9691274,0.723615 -0.5685548,0.258434 -1.2275615,0.258434 -0.6590067,0 -1.2275614,-0.258434 Q 6.4469036,86.333156 6.0334092,85.867975 5.6328365,85.402794 5.4002459,84.756709 5.1676553,84.097702 5.1676553,83.3224 q 0,-0.775302 0.2325906,-1.421386 0.2325906,-0.659007 0.6331633,-1.124188 0.4134944,-0.478103 0.9691275,-0.736537 0.5685547,-0.258434 1.2275614,-0.258434 0.6590067,0 1.2275615,0.258434 0.5685544,0.258434 0.9691274,0.736537 0.413494,0.465181 0.646085,1.124188 0.232591,0.646084 0.232591,1.421386 z m -1.8090383,0 q 0,-0.775302 -0.3101208,-1.292169 -0.3101208,-0.52979 -0.9562058,-0.52979 -0.646085,0 -0.9562057,0.516868 -0.2971991,0.516868 -0.2971991,1.305091 0,0.788224 0.2971991,1.305092 0.3101207,0.503946 0.9562057,0.503946 0.3230425,0 0.5556331,-0.142138 0.2455123,-0.155061 0.4005727,-0.400573 0.1550604,-0.258434 0.2325906,-0.581476 0.07753,-0.335965 0.07753,-0.684851 z m 7.1586333,-1.318013 q -0.219669,-0.193825 -0.478103,-0.310121 -0.258434,-0.129217 -0.555633,-0.129217 -0.258434,0 -0.478103,0.06461 -0.206747,0.06461 -0.361808,0.23259 -0.142139,0.167983 -0.23259,0.45226 -0.07753,0.284277 -0.07753,0.723615 v 3.669763 h -1.783194 v -6.783893 h 1.783194 v 0.45226 q 0.232591,-0.245512 0.568555,-0.413494 0.348886,-0.180904 0.826989,-0.180904 0.439338,0 0.749458,0.15506 0.323043,0.142139 0.503947,0.323043 z m 5.582157,4.432143 q -0.219669,0.180904 -0.594398,0.297199 -0.374729,0.116295 -0.788224,0.116295 -0.413494,0 -0.749458,-0.142138 -0.335964,-0.155061 -0.568555,-0.426416 -0.232591,-0.271356 -0.361808,-0.646085 -0.129217,-0.37473 -0.129217,-0.826989 v -3.204582 h -1.137109 v -1.679821 h 1.137109 v -1.744429 l 1.783195,-0.891597 v 2.636026 h 1.628134 v 1.679821 H 20.82875 v 2.726479 q 0,0.491025 0.167982,0.659007 0.167982,0.15506 0.491025,0.15506 0.245512,0 0.452259,-0.116295 0.219669,-0.116295 0.555633,-0.400573 z m 7.184463,-3.11413 q 0,0.193826 -0.01292,0.335965 0,0.129217 -0.01292,0.23259 h -4.057413 q 0.02584,0.348886 0.15506,0.594398 0.129217,0.245513 0.323042,0.400573 0.193826,0.142139 0.426417,0.219669 0.245512,0.06461 0.491024,0.06461 0.374729,0 0.671929,-0.129216 0.297199,-0.129217 0.491024,-0.348886 l 1.266327,1.059579 q -0.413495,0.52979 -1.085423,0.814067 -0.659007,0.284277 -1.343857,0.284277 -0.736537,0 -1.330935,-0.245512 -0.581476,-0.258434 -0.994971,-0.710693 -0.413494,-0.465182 -0.646085,-1.111266 -0.219669,-0.659007 -0.219669,-1.460153 0,-0.775302 0.232591,-1.421386 0.232591,-0.659007 0.633163,-1.124188 0.413495,-0.478103 0.956206,-0.736537 0.555633,-0.258434 1.201718,-0.258434 0.671928,0 1.201718,0.284277 0.542712,0.271356 0.904519,0.76238 0.361808,0.478103 0.555633,1.124188 0.193826,0.646085 0.193826,1.3697 z M 27.69017,82.547098 q -0.02584,-0.23259 -0.103374,-0.439337 -0.07753,-0.219669 -0.23259,-0.387651 -0.142139,-0.180904 -0.361808,-0.284278 -0.219669,-0.103373 -0.516868,-0.103373 -0.491024,0 -0.775302,0.348886 -0.284277,0.348886 -0.335964,0.865753 z m 6.874344,4.160788 V 86.28147 q -0.258434,0.219669 -0.60732,0.400572 -0.335965,0.167982 -0.826989,0.167982 -0.542712,0 -1.020814,-0.206747 -0.478103,-0.206747 -0.839911,-0.646085 -0.361807,-0.452259 -0.568555,-1.124188 -0.206747,-0.68485 -0.206747,-1.641055 0,-0.762381 0.167982,-1.395544 0.180904,-0.633163 0.516868,-1.085423 0.335964,-0.465181 0.826989,-0.710693 0.491025,-0.258434 1.124188,-0.258434 0.452259,0 0.814067,0.15506 0.374729,0.155061 0.620242,0.374729 v -2.13208 l 1.783194,-0.891597 v 9.419919 z m 0,-4.664734 q -0.426417,-0.581476 -1.201719,-0.581476 -1.059579,0 -1.059579,1.731507 0,1.046658 0.310121,1.511839 0.323042,0.465181 0.852832,0.465181 0.413494,0 0.659007,-0.15506 0.245512,-0.15506 0.439338,-0.413494 z m 13.14138,1.356779 q 0,0.76238 -0.180904,1.395543 -0.167982,0.633163 -0.503946,1.098345 -0.335964,0.452259 -0.826989,0.710693 -0.491024,0.245512 -1.124188,0.245512 -0.452259,0 -0.826988,-0.15506 -0.361808,-0.15506 -0.60732,-0.374729 v 0.387651 h -1.783195 v -8.528322 l 1.783195,-0.891597 v 3.062443 q 0.258434,-0.219669 0.594398,-0.387651 0.348886,-0.180904 0.83991,-0.180904 0.542712,0 1.020815,0.206747 0.478103,0.206747 0.83991,0.659007 0.361808,0.439337 0.568555,1.124188 0.206747,0.68485 0.206747,1.628134 z m -1.809038,0.03876 q 0,-1.046658 -0.323042,-1.511839 -0.310121,-0.465181 -0.839911,-0.465181 -0.413494,0 -0.659006,0.15506 -0.245513,0.155061 -0.439338,0.413495 v 2.558496 q 0.426416,0.581476 1.201718,0.581476 1.059579,0 1.059579,-1.731507 z m 5.892302,5.659704 h -1.757351 l 0.904519,-2.390514 -2.636027,-6.783893 h 1.964099 l 1.111266,3.26919 q 0.142138,0.387651 0.258434,0.814068 0.116295,0.426416 0.180904,0.671928 0.06461,-0.258434 0.180903,-0.671928 0.116296,-0.413495 0.258434,-0.814068 l 1.111266,-3.26919 h 1.912412 z"
         id="text1"
         transform="scale(0.92896528,1.0764665)"
         aria-label="proudly supported by" /></g></g></svg>
