<?xml version="1.0" encoding="UTF-8" standalone="no"?>
<!-- Created with Inkscape (http://www.inkscape.org/) -->

<svg
   width="131.22096mm"
   height="15.274178mm"
   viewBox="0 0 131.22096 15.274178"
   version="1.1"
   id="svg1"
   xml:space="preserve"
   inkscape:version="1.4.2 (ebf0e940d0, 2025-05-08)"
   sodipodi:docname="supported_by_pal.svg"
   xmlns:inkscape="http://www.inkscape.org/namespaces/inkscape"
   xmlns:sodipodi="http://sodipodi.sourceforge.net/DTD/sodipodi-0.dtd"
   xmlns="http://www.w3.org/2000/svg"
   xmlns:svg="http://www.w3.org/2000/svg"><sodipodi:namedview
     id="namedview1"
     pagecolor="#ffffff"
     bordercolor="#000000"
     borderopacity="0.25"
     inkscape:showpageshadow="2"
     inkscape:pageopacity="0.0"
     inkscape:pagecheckerboard="0"
     inkscape:deskcolor="#d1d1d1"
     inkscape:document-units="mm"
     inkscape:zoom="0.73049944"
     inkscape:cx="-33.538698"
     inkscape:cy="428.47398"
     inkscape:window-width="1920"
     inkscape:window-height="1043"
     inkscape:window-x="1920"
     inkscape:window-y="0"
     inkscape:window-maximized="1"
     inkscape:current-layer="layer1" /><defs
     id="defs1" /><g
     inkscape:label="Layer 1"
     inkscape:groupmode="layer"
     id="layer1"
     transform="translate(-23.37864,-18.416252)"><g
       id="g1"
       transform="matrix(0.56100168,0,0,0.56100168,61.467586,-22.800491)"
       style="stroke-width:1.78253"><g
         id="g10"
         transform="matrix(0.00945697,0,0,-0.00945697,47.008438,124.94713)"
         style="fill:#343433;fill-opacity:1;stroke-width:6.64945"><path
           d="M 3844.74,5443.3 H 1768.42 c -77.33,0 -116.09,-41.14 -116.09,-123.43 v -444.12 h 641.95 456.13 974.47 c 131.61,0 224.27,-30.16 278.47,-90.56 53.98,-60.31 81.13,-152.11 81.13,-275.54 v -156.19 c 0,-123.43 -27.15,-215.3 -81.13,-275.64 -54.2,-60.31 -146.86,-90.46 -278.47,-90.46 H 2243.86 1652.33 V 2654.81 c 0,-60.31 29.72,-90.46 88.94,-90.46 h 417.69 c 56.59,0 84.9,30.15 84.9,90.46 v 789.68 h 1600.88 c 296.43,0 508.99,71.2 637.99,213.79 128.92,142.63 193.34,353.74 193.34,633.46 v 304.29 c 0,279.72 -64.42,490.85 -193.34,633.38 -129,142.59 -341.56,213.89 -637.99,213.89"
           style="fill:#343433;fill-opacity:1;fill-rule:nonzero;stroke:none;stroke-width:6.64945"
           id="path12" /><path
           d="m 7607.28,5130.74 c -64.35,123.43 -130.08,206.26 -197.05,248.78 -67.03,42.52 -149.49,63.79 -247.47,63.79 H 6934.7 c -82.51,0 -154.57,-21.27 -216.46,-63.79 -61.93,-42.52 -125.2,-125.35 -189.53,-248.78 L 5260.74,2658.93 c -12.98,-27.44 -16.23,-50.03 -9.58,-67.9 6.41,-17.86 26.39,-26.68 59.84,-26.68 h 502.69 c 41.14,0 70.75,17.79 88.84,53.44 l 66.37,131.85 0.76,1.56 199.61,397.09 h 1.38 l 374.77,740.47 474.2,941.76 c 10.45,19.19 24.59,28.78 42.67,28.78 h 23.06 c 18.11,0 32.33,-9.59 42.67,-28.78 l 504.31,-988.69 560.04,-1092.19 68.22,-131.85 c 15.47,-35.65 45.06,-53.44 88.91,-53.44 h 490.91 c 31.02,0 49.67,8.82 56.07,26.68 6.43,17.87 3.26,40.46 -9.58,67.9 L 7607.28,5130.74"
           style="fill:#343433;fill-opacity:1;fill-rule:nonzero;stroke:none;stroke-width:6.64945"
           id="path14" /><path
           d="m 12498.3,3148.32 h -1565.9 c -100.6,0 -183.8,8.97 -249.4,26.83 -65.7,17.81 -118,47.87 -156.7,90.47 -38.5,42.47 -66.2,100 -83.1,172.7 -16.8,72.6 -25.1,163.78 -25.1,273.54 v 1640.99 c 0,60.26 -28.3,90.42 -85.1,90.42 h -417.44 c -59.49,0 -89.18,-30.16 -89.18,-90.42 v -1702.8 c 0,-197.42 20.03,-365.39 60.09,-503.72 39.81,-138.44 103.08,-250.98 189.33,-337.28 86.5,-86.37 197.9,-148.7 334.5,-187.14 136.6,-38.43 302.9,-57.6 498.9,-57.6 h 1589.1 c 56.6,0 85.2,30.16 85.2,90.47 v 403.05 c 0,60.34 -28.6,90.49 -85.2,90.49"
           style="fill:#343433;fill-opacity:1;fill-rule:nonzero;stroke:none;stroke-width:6.64945"
           id="path16" /></g><text
         xml:space="preserve"
         style="font-size:12.9217px;font-family:'Exo 2';-inkscape-font-specification:'Exo 2, ';text-align:start;writing-mode:lr-tb;direction:ltr;text-anchor:start;fill:#343433;fill-opacity:1;stroke:none;stroke-width:1.90019;stroke-linejoin:round;stroke-opacity:1"
         x="-73.951935"
         y="86.707886"
         id="text1"
         transform="scale(0.92896528,1.0764665)"><tspan
           sodipodi:role="line"
           id="tspan1"
           style="font-style:normal;font-variant:normal;font-weight:normal;font-stretch:normal;font-family:Interstate;-inkscape-font-specification:Interstate;fill:#343433;fill-opacity:1;stroke:none;stroke-width:1.90019;stroke-opacity:1"
           x="-73.951935"
           y="86.707886">proudly supported by</tspan></text></g></g></svg>
