<?xml version="1.0" encoding="UTF-8" standalone="no"?>
<svg
   width="217.1301"
   height="203.73923"
   viewBox="0 0 217.1301 203.73923"
   version="1.1"
   id="svg941"
   sodipodi:docname="favicon.svg"
   inkscape:version="1.4.2 (ebf0e940d0, 2025-05-08)"
   xml:space="preserve"
   inkscape:export-filename="logo.png"
   inkscape:export-xdpi="192"
   inkscape:export-ydpi="192"
   xmlns:inkscape="http://www.inkscape.org/namespaces/inkscape"
   xmlns:sodipodi="http://sodipodi.sourceforge.net/DTD/sodipodi-0.dtd"
   xmlns="http://www.w3.org/2000/svg"
   xmlns:svg="http://www.w3.org/2000/svg"><sodipodi:namedview
     id="namedview941"
     pagecolor="#ffffff"
     bordercolor="#000000"
     borderopacity="0.25"
     inkscape:showpageshadow="2"
     inkscape:pageopacity="0.0"
     inkscape:pagecheckerboard="false"
     inkscape:deskcolor="#d1d1d1"
     inkscape:zoom="2"
     inkscape:cx="62.5"
     inkscape:cy="111"
     inkscape:window-width="1920"
     inkscape:window-height="1043"
     inkscape:window-x="0"
     inkscape:window-y="0"
     inkscape:window-maximized="1"
     inkscape:current-layer="layer1" /><defs
     id="defs487"><linearGradient
       id="gradient_0"
       gradientUnits="userSpaceOnUse"
       x1="1766.5612"
       y1="1445.6725"
       x2="1721.8597"
       y2="1485.604"
       gradientTransform="matrix(0.22390379,0,0,0.22414183,9.131198,43.648112)"><stop
         offset="0"
         stop-color="#8F918E"
         id="stop486" /><stop
         offset="1"
         stop-color="#B5B9BB"
         id="stop487" /></linearGradient></defs><g
     inkscape:groupmode="layer"
     id="layer2"
     inkscape:label="bg"
     transform="translate(-53.605628,-86.847859)" /><g
     inkscape:groupmode="layer"
     id="layer1"
     inkscape:label="fg"
     transform="translate(-53.605628,-86.847859)"><g
       id="g1"
       transform="rotate(-8.0107531,812.60622,1921.368)"><path
         id="path1"
         style="stroke-width:0.228692"
         d="m 313.4998,164.73723 c -0.005,1.57661 0.0462,10.45556 -0.45535,11.55408 l -0.46109,12.58149 c -0.10747,2.97772 -0.31947,6.08694 0.0746,9.02477 0.0582,1.3193 1.98579,3.72759 3.27548,3.97572 5.75432,1.10547 11.88516,0.84825 17.73577,1.16899 4.09968,0.22459 6.22432,-0.39818 7.28563,-4.69318 0.13434,-5.39084 0.4975,-10.98039 0.78634,-16.38311 0.16569,-3.37176 0.29226,-6.84288 0.54527,-10.20142 2.91523,0.0838 5.88062,0.13926 8.79136,0.25446 l -1.94003,16.93222 c -0.38287,3.47083 -0.91503,7.06402 -0.75382,10.55727 0.0895,1.93524 1.949,3.87928 3.79397,4.36029 5.47669,1.42822 13.03371,0.77884 18.38053,2.23083 4.75259,0.001 5.14069,-1.96197 6.11281,-5.46805 0.45901,-6.51669 1.81897,-15.57442 2.61159,-22.17832 1.63897,-13.71142 3.37313,-27.41094 5.20019,-41.09839 0.21718,-1.92785 1.24236,-10.71929 1.64539,-12.09171 l 0.12628,-2.77803 c -0.007,-2.54871 0.17895,-3.86078 -1.28762,-6.01523 -0.74337,-0.53548 -1.45385,-1.06202 -2.34946,-1.3144 -2.93314,-0.82888 -20.03936,-2.65612 -22.81353,-2.24998 -1.13967,0.16654 -2.03357,0.508 -2.71871,1.46172 -0.75008,1.0445 -1.20615,2.36635 -1.46364,3.62177 -0.68067,3.33142 -0.63233,6.99877 -0.83608,10.38892 -0.29331,4.86656 -0.71302,9.74534 -0.91453,14.61527 -3.20854,-0.14905 -6.41666,-0.26187 -9.62744,-0.33673 l 1.20916,-13.65291 c 0.71873,-8.05163 2.58992,-16.14818 -7.93804,-15.57572 -5.30876,0.28869 -11.41149,-0.72742 -16.79638,-0.47257 -6.46186,-0.0693 -5.54586,7.80003 -5.85261,12.3519 -0.63365,9.4209 -0.2918,19.04808 -0.79782,28.47481 v 1.94577 c 0.0604,1.62525 -0.12053,3.63032 -0.22576,5.28247 -0.12153,0.57452 -0.34246,3.727 -0.34246,3.727 z"
         sodipodi:nodetypes="ccccccccccccccccccccccccccccscccccc" /><path
         id="path58"
         style="fill:#de403d;fill-opacity:1;stroke-width:0.228692"
         d="m 360.43149,117.20086 -1.29335,18.09547 c -0.29556,4.03881 -0.72602,8.31585 -0.8514,12.34234 l -19.40986,-0.92793 c 0.32914,-9.2055 1.73503,-19.30793 2.3418,-28.62596 -5.60878,-0.43595 -15.61029,-0.75749 -21.237,-0.6945 -0.34033,15.45144 -0.79226,30.89979 -1.3565,46.34451 -0.37615,10.04447 -0.96211,20.72216 -1.04272,30.76304 6.0051,0.45412 12.47225,0.61707 18.52214,0.85332 0.59334,-10.39951 1.27927,-21.44872 1.70468,-31.82873 l 18.59483,0.64094 0.20854,0.1454 c -0.13882,3.27673 -0.78901,7.90266 -1.16517,11.27667 l -2.29781,20.56162 c 5.89987,0.80041 12.46942,0.95487 18.60439,1.73914 0.76127,-5.10034 1.28411,-11.35994 1.89985,-16.56295 1.5718,-13.78024 3.28379,-27.54422 5.13324,-41.28971 l 0.0937,-0.30038 c 0.41198,-4.40058 1.167,-8.77249 1.70661,-13.15356 0.23062,-1.86935 1.48719,-5.48085 0.36543,-6.91447 -1.51359,-0.94274 -17.4786,-2.11168 -20.52145,-2.46426 z" /><path
         id="path352"
         style="fill:#070607;fill-opacity:1;stroke-width:0.228692"
         d="m 409.17929,119.16577 c -4.24531,0.002 -8.38926,0.27911 -12.22754,0.72129 -5.30651,0.61146 -8.00961,0.29418 -9.51647,6.0535 -0.27539,2.69985 -0.70817,10.75518 -1.36414,12.90866 -0.45453,5.50448 -1.28721,11.44043 -1.93429,16.96665 l -5.4451,43.91661 c 0.47996,4.72527 4.92971,7.89622 9.28434,6.75514 3.1376,0.0153 4.07411,-0.65061 15.77217,0.37944 2.54425,0.97715 3.36877,-0.85505 3.49865,-4.34508 0.37616,-3.56072 0.79578,-7.1157 1.25701,-10.66633 l 4.01398,9.05538 c 0.48811,1.09807 1.73432,3.73577 2.05674,4.74867 0.60678,1.02208 1.01265,2.12936 1.45598,3.23147 2.55026,4.15805 3.15762,11.42051 10.02922,9.55856 2.13382,-0.5785 4.51192,-2.01034 6.52034,-3.01719 l 9.72693,-4.85772 c -0.41199,3.6116 -1.43354,8.77723 3.17216,9.91252 5.76104,1.41993 11.63369,2.79446 17.34547,4.39281 3.42573,0.95843 7.33144,2.27434 9.94887,-0.99298 0.84411,-1.0528 1.27122,-4.04287 1.72575,-5.42022 1.17549,-4.83093 2.19011,-9.88117 3.29843,-14.7224 l 6.83028,-29.23628 c 2.31292,-9.79075 4.86464,-19.52295 7.06561,-29.33386 0.57767,-2.57562 1.19346,-8.39639 -1.56503,-9.87999 -4.05042,-2.17844 -9.4446,-2.47718 -13.92268,-3.5376 -3.55335,-0.8412 -7.2395,-1.52914 -10.81748,-2.27867 -2.18307,-0.45366 -5.08628,0.28169 -6.04012,2.51974 -0.79932,2.14347 -1.22265,4.78981 -1.70852,7.07136 l -3.49932,17.27659 c -0.89113,4.59491 -8.67228,42.1515 -9.54326,43.52056 l -0.31186,-0.20663 c -0.84636,-1.36099 -1.91922,-3.37677 -2.66706,-4.79267 -2.36442,-3.76469 -5.66355,-10.37226 -7.81751,-14.45073 8.33818,-4.35374 12.56114,-7.98388 16.56678,-17.00492 3.28019,-7.38345 3.02868,-17.98996 0.0306,-25.47293 -1.61211,-3.64096 -2.97034,-5.60524 -5.75122,-8.3781 -9.07818,-7.93126 -22.73175,-10.40122 -35.46771,-10.39465 z m -21.74401,6.77479 c -0.16374,-0.18407 -0.25972,-0.31429 -0.32143,-0.44004 0.0616,0.12581 0.1577,0.25597 0.32143,0.44004 z m -0.49745,-1.25126 c 0.0395,0.24323 0.0574,0.41042 0.0881,0.55102 -0.0307,-0.14055 -0.0486,-0.30777 -0.0881,-0.55102 z m -2.14091,13.24156 c 0.0517,0.0993 0.0894,0.17039 0.12819,0.22386 -0.0388,-0.0534 -0.0765,-0.12455 -0.12819,-0.22386 z m 0.18941,0.29273 c 0.10762,0.0966 0.26473,0.12212 0.69259,0.24873 -0.42926,-0.12703 -0.58497,-0.15147 -0.69259,-0.24873 z m 28.83832,10.30282 c 2.16291,0.0713 7.13582,0.36112 8.66508,1.9783 0.36944,0.39001 0.50682,0.83146 0.36351,1.36222 -0.3269,1.22068 -2.21335,2.06196 -3.22764,2.63263 -1.82033,1.33095 -4.86341,1.76514 -7.04647,2.24614 0.58887,-2.68925 0.84474,-5.4935 1.24552,-8.21929 z"
         sodipodi:nodetypes="cccccccccccccccccccccccsccccccccccccccccccccccccccccccc" /><path
         id="path353"
         style="fill:#de403d;fill-opacity:1;stroke-width:0.228692"
         d="m 402.65322,123.69442 c -3.51082,0.56573 -6.66226,0.69038 -10.36787,1.42154 l -5.52736,49.11871 c -0.90456,7.58742 -2.21911,15.86445 -2.9177,23.37411 6.3653,2.94673 11.64729,2.95885 18.61396,1.04845 0.7344,-6.48622 1.45741,-14.56144 2.64409,-20.84862 1.31653,-0.18178 2.63561,-0.35453 3.9566,-0.51658 1.56508,2.8809 3.41091,7.57372 4.78119,10.71417 2.23232,5.04946 4.51381,10.07815 6.83794,15.08593 0.36608,0.79615 1.05869,2.40017 1.79079,3.93171 0.54881,1.14811 1.12125,2.25791 1.59182,2.95213 0.15654,0.23073 0.30253,0.41596 0.4324,0.54146 0.35531,0.0296 0.61152,-0.0459 0.85904,-0.17985 h 0.002 c 0.0728,-0.0396 0.14625,-0.0854 0.22002,-0.13393 0.14857,-0.0977 0.30307,-0.21126 0.48405,-0.33099 0.59326,-0.12617 3.30656,-1.52878 4.02355,-1.88455 3.27795,-1.77542 7.66135,-3.50846 10.73331,-5.35516 -1.35665,-2.37039 -2.88762,-5.19477 -4.33159,-7.46739 -0.25973,-0.92234 -1.83884,-3.7065 -2.38964,-4.68936 -2.82567,-5.04969 -5.25915,-10.23973 -7.85196,-15.39971 6.87833,-2.16409 12.16866,-5.28411 16.67584,-11.06428 l 0.6065,-1.02933 v -0.002 l 0.0554,-0.25637 0.002,-0.002 c 0.10619,-0.10037 0.20777,-0.20827 0.3042,-0.32334 v -0.002 c 0.0964,-0.11509 0.18968,-0.23498 0.27742,-0.3616 v -0.002 c 0.52788,-0.7624 0.90909,-1.70511 1.26657,-2.48148 0.6815,-1.4785 1.22547,-2.98571 1.63009,-4.50378 0.40461,-1.51806 0.67058,-3.0467 0.79782,-4.565 0.0637,-0.75914 0.0919,-1.51537 0.0861,-2.26719 -0.0116,-1.50365 -0.16186,-2.98813 -0.45152,-4.43299 -0.14483,-0.72242 -0.32513,-1.43484 -0.53954,-2.13518 -0.42884,-1.40068 -0.99709,-2.75216 -1.70469,-4.03503 -1.41496,-2.56529 -3.38721,-4.85736 -5.91958,-6.71549 h -0.002 c -1.26646,-0.92914 -2.67208,-1.74994 -4.2187,-2.44321 -1.87184,-0.83874 -3.90686,-1.35137 -5.76078,-2.13901 l -0.30229,-0.1301 c -10.23241,-2.59742 -15.98041,-2.58592 -26.38746,-2.49088 z m 11.17143,24.83199 c 2.16291,0.0713 7.13582,0.36112 8.66508,1.9783 0.36944,0.39001 0.50681,0.83146 0.36351,1.36222 -0.3269,1.22068 -2.21335,2.06196 -3.22764,2.63263 -1.82033,1.33095 -4.86341,1.76514 -7.04647,2.24614 0.58887,-2.68925 0.84474,-5.4935 1.24552,-8.21929 z m 17.8563,57.25382 c 0.0795,-9.8e-4 0.15463,0.003 0.22769,0.01 -0.14559,-0.0125 -0.30287,-0.0133 -0.4764,0.0115 0.0865,-0.0123 0.16987,-0.0197 0.24871,-0.0211 z"
         sodipodi:nodetypes="cccccccccsccccsccccccccccscccccsssssscccccccccccccccccc" /><path
         id="path358"
         style="stroke-width:0.228692"
         d="m 414.7717,140.50801 c -1.53373,-0.0197 -4.38489,0.071 -5.5044,1.16325 -0.1545,0.169 -0.30819,0.338 -0.46491,0.50701 -0.51946,3.17765 -0.90094,6.49897 -1.48085,9.6504 -2.00394,10.91593 -2.42604,10.92927 8.42209,9.76329 0.77471,-0.15242 1.61788,-0.29789 2.37243,-0.50702 0.7971,-0.68183 2.1334,-1.08787 3.22381,-1.60138 5.72072,-2.69239 10.22453,-9.22662 5.73974,-15.13568 -0.46124,-0.60607 -0.95585,-0.98756 -1.72384,-1.01401 -3.34288,-2.03902 -6.68814,-2.77588 -10.58407,-2.82586 z m -0.94705,8.0184 c 2.16291,0.0713 7.13582,0.36112 8.66508,1.9783 0.36944,0.39001 0.50681,0.83146 0.36351,1.36222 -0.3269,1.22068 -2.21335,2.06196 -3.22764,2.63263 -1.82033,1.33095 -4.86341,1.76514 -7.04647,2.24614 0.58887,-2.68925 0.84474,-5.4935 1.24552,-8.21929 z" /><path
         id="path369"
         style="fill:#de403d;fill-opacity:1;stroke-width:0.228692"
         d="m 463.49412,133.72173 c -0.92249,3.22899 -1.78714,8.98204 -2.56184,12.56427 l -8.01267,38.37011 c -0.37392,1.63646 -1.50938,6.244 -1.66835,7.78116 l -4.32967,20.23064 c 0.90905,0.2544 1.98403,0.4769 2.91771,0.67728 6.32752,1.36033 12.52603,3.19818 18.81101,4.7219 2.91299,-11.67779 5.40156,-23.90859 8.13318,-35.67626 l 10.59556,-43.79224 c -7.91948,-1.7362 -15.8871,-3.5282 -23.88493,-4.87686 z" /></g><path
       style="stroke-width:0.228692"
       d="m 123.58555,203.76942 -0.25829,0.54909 h 0.002 z"
       id="path2" /><path
       fill="#070607"
       d="m 225.50108,147.86331 c 1.04987,0.51956 3.09635,1.45827 3.94495,2.11164 -0.71381,0.0751 -3.06972,-0.75177 -3.76807,-1.15366 -0.0645,-0.31828 -0.12338,-0.63768 -0.17688,-0.95798 z"
       id="path37"
       style="stroke-width:0.228692" /><g
       id="g7"
       transform="rotate(10.143131,301.19329,267.84775)"><path
         id="path16"
         style="fill:#000000;fill-opacity:1;stroke-width:0.228692"
         d="m 216.26299,110.34356 c -16.51351,-0.50596 -33.27416,8.37935 -34.94727,26.54883 l -0.2168,1.94531 0.006,1.39258 c 0.18472,0.71725 0.30407,0.65908 0.0645,1.19141 -0.42104,-0.52524 -0.28559,-0.37938 -0.30274,-1.22071 l -0.48242,-1.07812 -0.53516,-1.11719 c -6.02861,-13.02667 -15.24115,-21.59302 -30.41601,-21.90234 -11.84765,-0.2414 -19.0322,3.89629 -27.33008,11.85937 l -2.31836,2.8125 c -4.78393,6.54607 -6.40396,11.18784 -8.79101,18.65625 -0.39407,-2.00473 -0.94006,-3.97642 -1.63282,-5.89844 -2.43271,-6.60993 -7.10615,-12.38132 -13.515622,-15.45117 -2.023194,-0.96919 -4.289192,-1.42281 -6.294922,-2.38281 -0.572522,0.0915 -6.556228,-1.02491 -7.832031,-1.06055 -3.660156,-0.10176 -7.260273,0.13974 -10.876953,0.65235 l -0.205078,-0.0293 -1.238282,0.18164 c -3.975414,0.88132 -8.087624,1.53987 -11.996093,2.66797 -5.020813,1.44908 -25.834237,9.12288 -28.22461,13.12695 -0.803815,1.34642 -1.223585,4.08921 -1.064453,5.64453 0.454497,4.44182 2.119019,9.04286 3.267578,13.35938 l 5.966797,22.44922 c 2.852539,10.33092 5.149054,20.91348 8.013672,31.32422 l 0.492187,1.83984 c 0.886885,4.48259 2.231878,8.99169 3.384766,13.41602 1.194746,4.58483 1.770885,6.39434 6.839844,6.69335 1.359316,-0.33487 2.711646,-0.69658 4.05664,-1.08593 0.519226,-0.0538 2.669718,-0.74525 3.296875,-0.93555 1.676366,-0.56125 3.546925,-1.08793 5.251954,-1.60547 0.794186,-0.19905 1.587855,-0.40304 2.378906,-0.61328 3.159114,-0.8412 8.893211,-2.05891 10.699219,-4.99023 1.13788,-1.84647 0.157725,-6.4369 -0.41211,-8.46875 -1.318569,-4.70025 -2.371645,-9.61287 -3.841797,-14.27344 2.530561,2.49536 5.094247,4.9583 7.6875,7.38867 1.641886,1.50354 3.995324,3.54051 5.423828,5.16016 3.170478,2.73319 6.098654,5.74479 9.38086,8.35156 1.634045,1.50443 5.131685,1.69202 6.783205,-0.0254 5.06515,-5.26733 10.63054,-10.46431 15.28125,-16.09766 0.85487,-1.03576 0.56098,-3.15454 0.25781,-4.34765 -0.24495,-0.66839 -0.34312,-0.98571 -0.1875,-1.5918 0.75253,0.083 0.74362,0.30468 1.45117,0.93945 0.86269,0.68475 1.69297,1.36737 2.58008,2.05078 8.83994,6.81144 21.52799,8.66794 31.78906,4.25391 0.64026,-0.27553 4.8321,-2.3557 13.09961,-8.79492 2.70364,-2.79976 4.15618,-5.04492 6.13281,-8.31446 0.91285,-1.51408 1.39533,-2.42315 2.13868,-4.02734 4.91827,-10.63329 5.6451,-20.27864 5.02734,-31.72266 l -0.37109,-2.74218 c 0.55081,0.83247 1.18581,1.68585 1.76953,2.50195 8.02896,9.68584 18.15945,11.67594 28.32422,18.14648 -7.10536,0.76051 -12.32213,-1.69617 -17.24219,-6.91015 -1.66674,-0.49043 -3.27582,-1.00592 -4.89844,-0.0547 -2.21441,1.29846 -9.80133,15.72191 -11.10937,18.74805 1.1166,4.12802 -1.56618,5.17391 2.89062,8.82226 l 0.33789,0.19922 c 8.52872,5.57978 15.72016,8.97654 26.22461,9.45508 17.23476,0.78517 34.22949,-8.88306 34.91016,-27.66211 0,-2.875 -1.19727,-10.24805 -2.79102,-14.9668 -2.74506,-4.61978 -7.96507,-10.73361 -12.95117,-12.77734 -0.8486,-0.65337 -2.89542,-1.59177 -3.94531,-2.11133 -5.03761,-2.94746 -7.59098,-3.20729 -13.11133,-7.27344 5.77403,-1.41792 8.94678,0.91847 13.05273,4.47852 6.0913,5.59189 9.5389,-0.0648 12.58399,-5.19336 1.4218,-2.39249 6.28694,-8.98645 6.70117,-11.28906 1.06354,-5.91936 -3.25354,-8.75821 -7.53906,-11.7207 -5.96348,-4.12085 -13.41965,-6.29151 -20.92578,-6.52149 z m -66.9961,26.38672 a 17.6875,26.9375 0 0 1 17.6875,26.9375 17.6875,26.9375 0 0 1 -17.6875,26.9375 17.6875,26.9375 0 0 1 -17.6875,-26.9375 17.6875,26.9375 0 0 1 17.6875,-26.9375 z m -77.87695,9.51953 A 21.743534,16.086679 0 0 1 93.13408,162.33575 21.743534,16.086679 0 0 1 71.38994,178.42364 21.743534,16.086679 0 0 1 49.645799,162.33575 21.743534,16.086679 0 0 1 71.38994,146.24981 Z m 37.76953,25.75781 0.21094,0.0254 c 0.28971,1.0551 0.49504,3.45693 0.54297,4.61524 l 0.0781,0.2539 c 0.37594,1.23975 1.01094,4.53738 1.33985,5.98243 1.11662,4.90758 2.38363,7.32135 4.70507,11.64257 0.85711,1.30332 1.59752,2.46245 2.57422,3.67774 -1.02011,-0.76678 -2.04325,-1.49623 -2.96484,-2.37891 -3.85652,-2.50792 -11.18057,-9.0229 -14.98828,-12.18554 3.88907,-3.71166 5.60516,-6.23155 8.20117,-10.91602 z" /><path
         id="path17"
         style="fill:#36a2d2;fill-opacity:1;stroke-width:0.228692"
         d="m 147.91818,120.50886 c -8.23988,0.21496 -16.0518,3.7194 -21.69619,9.73268 -15.57273,16.723 -16.8066,50.64887 0.41518,66.46992 2.55407,2.37456 5.51742,4.26477 8.74544,5.58094 8.5267,3.26148 13.25246,2.33187 21.57182,0.0593 4.01723,-2.01839 4.50455,-2.28814 8.73013,-5.866 3.75308,-3.92808 5.75362,-6.66972 8.35896,-11.50625 11.82012,-21.94348 5.34748,-65.31851 -26.12534,-64.47059 z m 0.58163,28.39255 c 7.80204,0.44205 9.90245,16.33073 7.24928,22.70255 -1.94192,4.66394 -4.19724,10.43519 -11.35702,8.62682 -8.26182,-3.52889 -7.75698,-17.30344 -5.11984,-23.74527 0.28973,-0.69955 0.5973,-1.39179 0.92219,-2.07587 0.93479,-1.53851 2.09224,-2.76773 3.37878,-4.00634 1.84203,-1.13615 3.48178,-1.58376 4.92661,-1.50189 z"
         sodipodi:nodetypes="ccccccccccccccc" /><path
         id="path18"
         style="stroke-width:0.228692"
         d="m 148.53425,140.85239 c -4.42316,-0.11967 -9.05103,2.45762 -11.43546,6.13578 -6.89266,10.6326 -7.01409,28.87514 4.20148,36.7228 3.33326,1.57572 5.98351,1.65883 9.54135,0.52422 13.63574,-5.86243 14.4154,-32.81032 3.36731,-41.39877 -1.69594,-1.3183 -3.66415,-1.92964 -5.67468,-1.98403 z m -0.0345,8.04902 c 7.80204,0.44205 9.90245,16.33073 7.24928,22.70255 -1.94191,4.66394 -4.19724,10.43519 -11.35702,8.62682 -8.26182,-3.52889 -7.75698,-17.30344 -5.11984,-23.74527 0.28973,-0.69955 0.5973,-1.39179 0.92219,-2.07587 0.93479,-1.53851 2.09224,-2.76773 3.37878,-4.00634 1.84203,-1.13615 3.48178,-1.58376 4.92661,-1.50189 z" /><path
         id="path46"
         style="fill:#36a2d2;fill-opacity:1;stroke-width:0.228692"
         d="m 79.345604,129.17203 c -16.548938,-0.12025 -36.24737,7.99276 -46.195278,14.22306 1.115713,4.52408 2.492818,9.48866 3.786315,13.96477 l 8.607685,32.87527 c 1.669647,6.45461 3.127224,13.12377 4.932337,19.53421 0.309881,1.63557 1.175154,4.53836 1.616691,6.2257 l 3.101372,12.0477 c 6.944818,-1.77274 15.351336,-4.33898 22.168758,-6.62365 -1.69831,-5.97383 -2.919408,-12.68711 -4.92469,-18.48767 -0.602526,-3.27628 -1.706014,-6.96357 -2.550354,-10.25308 1.339391,-0.65561 2.673963,-1.32413 4.000593,-2.00508 6.597773,6.07044 12.942755,12.54158 19.583965,18.57951 2.965829,2.6962 6.748982,6.56491 9.954612,8.83345 0.37078,-0.36983 1.62078,-1.56136 1.84245,-1.91707 3.35161,-3.59479 9.75127,-9.65747 12.43991,-13.09424 -3.72934,-3.09697 -7.63276,-5.94276 -11.42972,-8.95589 -5.04007,-4.04643 -9.937953,-8.26797 -14.686058,-12.6542 7.223809,-5.19987 12.140368,-10.62423 14.427768,-19.63562 1.76123,-6.57633 0.44171,-15.45513 -3.07649,-21.36329 -4.874861,-8.18636 -13.670505,-11.22172 -23.599866,-11.29388 z m -3.92215,27.36322 c 2.14029,0.0616 3.826764,0.75821 3.985287,2.73211 0.09336,1.1624 -3.288532,4.72501 -4.438726,5.57137 -1.404772,1.05481 -2.064215,1.55979 -3.627514,2.34563 -1.22095,0.74326 -1.802596,1.00389 -3.120495,1.56313 -0.840088,-3.38567 -1.610607,-6.78776 -2.311203,-10.20524 1.117006,-0.44829 5.945498,-2.10964 9.512651,-2.007 z" /><path
         id="path49"
         style="stroke-width:0.228692"
         d="m 75.622432,148.31978 c -3.65008,0.1838 -5.291564,0.45039 -8.75692,1.35458 -2.723342,1.07588 -4.514614,1.87677 -7.138314,3.31756 0.611925,2.41894 2.455144,9.40255 2.711069,11.60765 0.886207,3.35787 1.66661,6.7445 2.339895,10.15167 4.134155,-1.32198 8.084173,-3.16641 11.75306,-5.48718 5.031342,-3.788 11.183264,-10.45849 6.37493,-17.37417 -1.73727,-2.49873 -4.407676,-3.15657 -7.28372,-3.57011 z m -0.198978,8.21547 c 2.14029,0.0616 3.826764,0.75821 3.985287,2.73211 0.09336,1.1624 -3.288532,4.72501 -4.438726,5.57137 -1.404772,1.05481 -2.064215,1.55979 -3.627514,2.34563 -1.22095,0.74326 -1.802596,1.00389 -3.120495,1.56313 -0.840088,-3.38567 -1.610607,-6.78776 -2.311203,-10.20524 1.117006,-0.44829 5.945498,-2.10964 9.512651,-2.007 z" /><path
         id="path63"
         style="fill:#36a2d2;fill-opacity:1;stroke-width:0.228692"
         d="m 214.93311,114.67921 c -7.34417,0.14316 -15.97797,2.67823 -21.28866,7.18614 -4.45099,3.82566 -7.20476,9.26151 -7.66063,15.11655 -0.96995,13.90307 8.959,19.71616 19.78676,25.01375 5.20196,2.54513 19.49795,8.23309 12.50879,15.66565 -1.66651,1.81711 -6.3595,2.1709 -8.69951,1.94385 -6.4518,-0.54579 -10.60541,-3.82525 -15.40927,-7.63767 -2.88321,5.21914 -5.84221,10.39593 -8.87745,15.52789 8.29429,7.00398 19.00675,10.46135 29.82555,9.62553 5.53491,-0.41377 12.59099,-2.28077 16.79255,-6.1109 0.95718,-0.50813 1.99628,-1.70371 2.6747,-2.53505 0.0362,-0.022 0.0736,-0.0469 0.11097,-0.0746 0.11222,-0.083 0.22998,-0.19155 0.34821,-0.31377 0.47291,-0.48916 0.96727,-1.22275 1.27614,-1.65496 0.92305,-1.29055 1.67769,-2.59792 2.27294,-3.9298 0.29762,-0.6659 0.55576,-1.33716 0.77487,-2.01656 0.4382,-1.35888 0.72115,-2.74724 0.85904,-4.17279 0.20685,-2.13817 0.0863,-4.36059 -0.33099,-6.69634 -0.74112,-4.14417 -3.78028,-9.55071 -7.32198,-11.92909 -5.14741,-5.5624 -16.35165,-8.30716 -22.49975,-13.22051 -7.12127,-5.69141 -3.34155,-12.03584 4.80989,-12.53366 3.04621,0.10265 3.74905,0.19317 6.57965,1.24552 4.01794,2.00786 5.55108,3.35449 8.78178,6.34431 0.86405,-1.1095 6.09679,-9.23819 6.74611,-10.47501 0.51498,-0.37521 2.56404,-3.5695 2.98274,-4.25314 -4.39076,-5.23931 -15.24458,-9.49083 -21.987,-10.02922 -0.98311,-0.0784 -2.00628,-0.10655 -3.05545,-0.0861 z" /></g><g
       id="g6"
       transform="matrix(0.70405689,-0.22738096,0.22738096,0.70405689,-71.138105,138.30983)"
       style="stroke-width:1.3516"><path
         style="stroke-width:0.3091"
         d="m 245.60458,178.14294 c 0.97678,0.96764 2.34669,2.09988 3.595,2.1758 2.97791,0.18043 6.16579,-0.30298 9.14148,-0.54527 5.22367,-0.42521 10.48441,-0.70132 15.69242,-1.22066 -0.4187,4.3497 -0.61556,9.55066 -0.882,13.97051 0.77972,5.65227 -1.43946,6.60733 2.34568,8.65106 2.47189,1.61002 11.44708,0.19741 16.65092,0.74674 3.1145,0.052 7.67558,0.49615 9.22948,-2.71871 1.15534,-2.38532 0.87109,-7.67435 0.89349,-10.41762 0.0672,-3.26843 -0.006,-7.2262 0.24298,-10.42718 0.005,-0.0827 -0.0112,-0.16937 0.0134,-0.24872 0.20823,-0.69103 5.65672,-0.0908 7.34495,-0.91453 1.63226,-0.7966 2.203,-2.04805 2.74933,-3.66769 0.30004,-2.87866 0.34525,-6.14398 0.68111,-8.89084 0,0 0.32152,-2.21848 0.50935,-3.80947 -0.25844,-1.65622 -0.19455,-3.39465 -0.17081,-5.07182 l -0.088,-1.85775 c -0.58662,-2.07241 -1.11654,-2.82499 -2.81821,-4.05799 -2.42936,-0.37701 -5.11925,-0.23531 -7.58219,-0.14923 0.36944,-5.14137 0.27609,-11.95967 0.81122,-16.80786 -0.009,-3.30788 0.16549,-9.13503 0.47448,-12.3806 0.0985,-7.62754 -0.71022,-11.13507 -9.45142,-10.70651 -4.58274,0.22442 -9.63286,-0.46108 -14.40673,-0.28508 l 9e-5,1e-4 c -1.59128,0.0587 -3.15253,0.21466 -4.65492,0.52997 -1.58972,0.36042 -9.05173,12.23795 -10.12871,13.84998 l -13.22434,19.70641 -5.92532,8.74161 c -2.84934,4.1607 -3.96636,4.93593 -4.22446,9.85815 0.375,3.09375 2.36923,13.04095 3.18173,15.9472 z"
         id="path3" /><path
         id="path34"
         style="fill:#369e58;fill-opacity:1;stroke-width:0.3091"
         d="m 277.92731,115.42539 c -4.31463,7.30209 -10.28419,15.02346 -14.86974,22.27782 -0.97175,1.53896 -4.74891,6.78667 -5.28628,8.02797 -3.07644,4.01707 -5.78682,8.53413 -8.711,12.68098 -0.56872,0.8096 -1.34669,1.94654 -1.8348,2.79716 0.85979,4.16075 1.70619,8.46259 2.66898,12.59106 9.67488,-0.45389 19.89425,-1.39168 29.6878,-1.97064 -0.3784,3.36033 -0.89676,22.86813 -1.53712,24.51624 3.13935,1.83835 18.48937,0.35624 19.535,-0.56631 0.38735,-1.23838 0.15792,-3.01879 0.0325,-4.33158 -0.12315,-1.21843 -0.0132,-4.47689 -0.002,-5.81435 l 0.25254,-14.42012 c 2.38458,-0.0115 7.65341,0.20257 10.0962,-0.20089 0.20152,-0.0332 0.26512,-0.82113 0.32334,-1.14412 l -0.0976,-1.43493 c 0.38736,-2.08856 0.78816,-10.66813 0.92027,-12.95841 -2.6443,0.0343 -8.80518,-0.0211 -11.0375,0.55676 0.18361,-1.66672 0.2008,-3.94866 0.22767,-5.64407 0.1545,-10.33428 1.09263,-20.85971 1.14413,-31.16866 0.065,-0.76881 0.049,-2.01569 0.0669,-2.82395 -0.96502,-1.14357 -15.91299,-0.60352 -18.21025,-0.91262 -0.39855,-0.0536 -2.83856,-0.0639 -3.36921,-0.0574 z"
         sodipodi:nodetypes="ccccccccccccccccccccscc" /><path
         id="path30"
         d="m 280.79846,134.00489 c -1.04342,1.61448 -2.66133,3.96604 -3.51655,5.60772 -3.75263,5.3543 -7.06506,11.24934 -10.96098,16.75045 0.77924,0.33005 2.36836,0.0906 3.29077,0.0115 2.76521,-0.0119 7.78742,-0.6041 10.61085,-0.86096 0.0873,-4.68188 0.23122,-9.36109 0.4305,-14.03938 0.0672,-1.72542 0.33346,-5.9164 0.14541,-7.46931 z"
         sodipodi:nodetypes="ccccccc"
         style="stroke-width:0.3091" /></g></g></svg>
